<svg xmlns="http://www.w3.org/2000/svg" viewBox="0 0 512 512" fill="none">
  <rect width="512" height="512" rx="112" fill="#000000"/>
  <path d="M256 96C167.634 96 96 167.634 96 256C96 308.572 121.365 355.204 160.835 384H144V416H256C344.366 416 416 344.366 416 256C416 167.634 344.366 96 256 96ZM363.957 288.75L271.849 344.02C262.155 349.837 249.845 349.837 240.151 344.02L148.043 288.75C138.349 282.933 132.272 272.408 132.272 260.774V150.226C132.272 138.592 138.349 128.067 148.043 122.25L240.151 66.9795C249.845 61.1627 262.155 61.1627 271.849 66.9795L363.957 122.25C373.651 128.067 379.728 138.592 379.728 150.226V260.774C379.728 272.408 373.651 282.933 363.957 288.75Z" fill="#10B981"/>
  <path d="M256 128C185.307 128 128 185.307 128 256C128 326.693 185.307 384 256 384C326.693 384 384 326.693 384 256C384 185.307 326.693 128 256 128ZM335.602 201.218L236.435 300.385C230.187 306.634 220.057 306.634 213.808 300.385L176.398 262.975C170.15 256.726 170.15 246.596 176.398 240.348C182.647 234.099 192.777 234.099 199.025 240.348L225.122 266.444L312.975 178.591C319.223 172.343 329.353 172.343 335.602 178.591C341.85 184.84 341.85 194.97 335.602 201.218Z" fill="#10B981"/>
</svg>
